<?xml version="1.0" encoding="UTF-8"?><svg xmlns="http://www.w3.org/2000/svg" fill-opacity="1" width="4096" height="4096" stroke-width="0"><defs id="xenoamess@gmail.com"/><g transform="translate(2048.0,2048.0)"><circle cx="0" cy="0" r="2048.0" fill="#FFFFFF"/><path d="M 0 0 632.8668044798925 -1947.7637453724744 A 2048.0 2048.0 0 0 0 -632.866804479893 -1947.7637453724744Z" fill="#FF0000"/><path d="M 0 0 -1370.3794818229417 -1521.9606025777034 A 2048.0 2048.0 0 0 0 -2003.2462863028338 -425.80314279477204Z" fill="#000000"/><path d="M 0 0 -2003.2462863028343 425.80314279476954 A 2048.0 2048.0 0 0 0 -1370.3794818229414 1521.9606025777034Z" fill="#FF0000"/><path d="M 0 0 -632.8668044798927 1947.7637453724744 A 2048.0 2048.0 0 0 0 632.8668044798918 1947.7637453724747Z" fill="#000000"/><path d="M 0 0 1370.3794818229421 1521.960602577703 A 2048.0 2048.0 0 0 0 2003.246286302834 425.8031427947705Z" fill="#FF0000"/><path d="M 0 0 2003.2462863028336 -425.80314279477284 A 2048.0 2048.0 0 0 0 1370.379481822943 -1521.960602577702Z" fill="#000000"/><circle cx="0" cy="0" r="1024.0" fill="#FFFFFF"/></g></svg>