<?xml version="1.0" encoding="UTF-8"?><svg xmlns="http://www.w3.org/2000/svg" fill-opacity="1" width="10240" height="10240" stroke-width="0"><defs id="xenoamess@gmail.com"/><g transform="translate(5120.0,5120.0)"><circle cx="0" cy="0" r="5120.0" fill="#FFFFFF"/><path d="M 0 0 1582.1670111997312 -4869.409363431186 A 5120.0 5120.0 0 0 0 -1582.1670111997323 -4869.409363431186Z" fill="#FF0000"/><path d="M 0 0 -3425.948704557354 -3804.9015064442583 A 5120.0 5120.0 0 0 0 -5008.115715757084 -1064.5078569869302Z" fill="#000000"/><path d="M 0 0 -5008.115715757086 1064.5078569869238 A 5120.0 5120.0 0 0 0 -3425.9487045573537 3804.9015064442583Z" fill="#FF0000"/><path d="M 0 0 -1582.1670111997319 4869.409363431186 A 5120.0 5120.0 0 0 0 1582.1670111997296 4869.409363431187Z" fill="#000000"/><path d="M 0 0 3425.948704557355 3804.9015064442574 A 5120.0 5120.0 0 0 0 5008.115715757085 1064.5078569869263Z" fill="#FF0000"/><path d="M 0 0 5008.115715757084 -1064.507856986932 A 5120.0 5120.0 0 0 0 3425.948704557358 -3804.901506444255Z" fill="#000000"/><circle cx="0" cy="0" r="2048.0" fill="#FFFFFF"/></g></svg>