<?xml version="1.0" encoding="UTF-8"?><svg xmlns="http://www.w3.org/2000/svg" fill-opacity="1" width="32768" height="32768" stroke-width="0"><defs id="xenoamess@gmail.com"/><g transform="translate(16384.0,16384.0)"><circle cx="0" cy="0" r="16384.0" fill="#FFFFFF"/><path d="M 0 0 5062.93443583914 -15582.109962979795 A 16384.0 16384.0 0 0 0 -5062.934435839144 -15582.109962979795Z" fill="#FF0000"/><path d="M 0 0 -10963.035854583533 -12175.684820621627 A 16384.0 16384.0 0 0 0 -16025.97029042267 -3406.4251423581763Z" fill="#000000"/><path d="M 0 0 -16025.970290422674 3406.4251423581563 A 16384.0 16384.0 0 0 0 -10963.035854583532 12175.684820621627Z" fill="#FF0000"/><path d="M 0 0 -5062.934435839142 15582.109962979795 A 16384.0 16384.0 0 0 0 5062.9344358391345 15582.109962979797Z" fill="#000000"/><path d="M 0 0 10963.035854583537 12175.684820621624 A 16384.0 16384.0 0 0 0 16025.970290422672 3406.425142358164Z" fill="#FF0000"/><path d="M 0 0 16025.970290422669 -3406.4251423581827 A 16384.0 16384.0 0 0 0 10963.035854583544 -12175.684820621616Z" fill="#000000"/><circle cx="0" cy="0" r="6553.6" fill="#FFFFFF"/></g></svg>