<?xml version="1.0" encoding="UTF-8"?><svg xmlns="http://www.w3.org/2000/svg" fill-opacity="1" width="8192" height="8192" stroke-width="0"><defs id="xenoamess@gmail.com"/><g transform="translate(4096.0,4096.0)"><circle cx="0" cy="0" r="4096.0" fill="#FFFFFF"/><path d="M 0 0 1265.733608959785 -3895.527490744949 A 4096.0 4096.0 0 0 0 -1265.733608959786 -3895.527490744949Z" fill="#FF0000"/><path d="M 0 0 -2740.7589636458833 -3043.921205155407 A 4096.0 4096.0 0 0 0 -4006.4925726056676 -851.6062855895441Z" fill="#000000"/><path d="M 0 0 -4006.4925726056686 851.6062855895391 A 4096.0 4096.0 0 0 0 -2740.758963645883 3043.921205155407Z" fill="#FF0000"/><path d="M 0 0 -1265.7336089597854 3895.527490744949 A 4096.0 4096.0 0 0 0 1265.7336089597836 3895.5274907449493Z" fill="#000000"/><path d="M 0 0 2740.7589636458843 3043.921205155406 A 4096.0 4096.0 0 0 0 4006.492572605668 851.606285589541Z" fill="#FF0000"/><path d="M 0 0 4006.492572605667 -851.6062855895457 A 4096.0 4096.0 0 0 0 2740.758963645886 -3043.921205155404Z" fill="#000000"/><circle cx="0" cy="0" r="2048.0" fill="#FFFFFF"/></g></svg>