<?xml version="1.0" encoding="UTF-8"?><svg xmlns="http://www.w3.org/2000/svg" fill-opacity="1" width="64" height="64" stroke-width="0"><defs id="xenoamess@gmail.com"/><g transform="translate(32.0,32.0)"><circle cx="0" cy="0" r="32.0" fill="#FFFFFF"/><path d="M 0 0 9.88854381999832 -30.433808521444913 A 32.0 32.0 0 0 0 -9.888543819998327 -30.433808521444913Z" fill="#FF0000"/><path d="M 0 0 -21.412179403483464 -23.780634415276616 A 32.0 32.0 0 0 0 -31.30072322348178 -6.653174106168313Z" fill="#000000"/><path d="M 0 0 -31.300723223481786 6.653174106168274 A 32.0 32.0 0 0 0 -21.41217940348346 23.780634415276616Z" fill="#FF0000"/><path d="M 0 0 -9.888543819998324 30.433808521444913 A 32.0 32.0 0 0 0 9.88854381999831 30.433808521444917Z" fill="#000000"/><path d="M 0 0 21.41217940348347 23.78063441527661 A 32.0 32.0 0 0 0 31.300723223481782 6.653174106168289Z" fill="#FF0000"/><path d="M 0 0 31.300723223481775 -6.653174106168326 A 32.0 32.0 0 0 0 21.412179403483485 -23.780634415276594Z" fill="#000000"/><circle cx="0" cy="0" r="16.0" fill="#FFFFFF"/></g></svg>