<?xml version="1.0" encoding="UTF-8"?><svg xmlns="http://www.w3.org/2000/svg" fill-opacity="1" width="20480" height="20480" stroke-width="0"><defs id="xenoamess@gmail.com"/><g transform="translate(10240.0,10240.0)"><circle cx="0" cy="0" r="10240.0" fill="#FFFFFF"/><path d="M 0 0 3164.3340223994624 -9738.818726862371 A 10240.0 10240.0 0 0 0 -3164.3340223994646 -9738.818726862371Z" fill="#FF0000"/><path d="M 0 0 -6851.897409114708 -7609.803012888517 A 10240.0 10240.0 0 0 0 -10016.231431514168 -2129.0157139738603Z" fill="#000000"/><path d="M 0 0 -10016.231431514172 2129.0157139738476 A 10240.0 10240.0 0 0 0 -6851.897409114707 7609.803012888517Z" fill="#FF0000"/><path d="M 0 0 -3164.3340223994637 9738.818726862371 A 10240.0 10240.0 0 0 0 3164.334022399459 9738.818726862373Z" fill="#000000"/><path d="M 0 0 6851.89740911471 7609.803012888515 A 10240.0 10240.0 0 0 0 10016.23143151417 2129.0157139738526Z" fill="#FF0000"/><path d="M 0 0 10016.231431514168 -2129.015713973864 A 10240.0 10240.0 0 0 0 6851.897409114716 -7609.80301288851Z" fill="#000000"/><circle cx="0" cy="0" r="5120.0" fill="#FFFFFF"/></g></svg>