<?xml version="1.0" encoding="UTF-8"?><svg xmlns="http://www.w3.org/2000/svg" fill-opacity="1" width="1024" height="1024" stroke-width="0"><defs id="xenoamess@gmail.com"/><g transform="translate(512.0,512.0)"><circle cx="0" cy="0" r="512.0" fill="#FFFFFF"/><path d="M 0 0 158.21670111997312 -486.9409363431186 A 512.0 512.0 0 0 0 -158.21670111997324 -486.9409363431186Z" fill="#FF0000"/><path d="M 0 0 -342.5948704557354 -380.49015064442585 A 512.0 512.0 0 0 0 -500.81157157570846 -106.45078569869301Z" fill="#000000"/><path d="M 0 0 -500.81157157570857 106.45078569869239 A 512.0 512.0 0 0 0 -342.59487045573536 380.49015064442585Z" fill="#FF0000"/><path d="M 0 0 -158.21670111997318 486.9409363431186 A 512.0 512.0 0 0 0 158.21670111997295 486.94093634311866Z" fill="#000000"/><path d="M 0 0 342.59487045573553 380.49015064442574 A 512.0 512.0 0 0 0 500.8115715757085 106.45078569869263Z" fill="#FF0000"/><path d="M 0 0 500.8115715757084 -106.45078569869321 A 512.0 512.0 0 0 0 342.59487045573576 -380.4901506444255Z" fill="#000000"/><circle cx="0" cy="0" r="256.0" fill="#FFFFFF"/></g></svg>