<?xml version="1.0" encoding="UTF-8"?><svg xmlns="http://www.w3.org/2000/svg" fill-opacity="1" width="256" height="256" stroke-width="0"><defs id="xenoamess@gmail.com"/><g transform="translate(128.0,128.0)"><circle cx="0" cy="0" r="128.0" fill="#FFFFFF"/><path d="M 0 0 39.55417527999328 -121.73523408577965 A 128.0 128.0 0 0 0 -39.55417527999331 -121.73523408577965Z" fill="#FF0000"/><path d="M 0 0 -85.64871761393385 -95.12253766110646 A 128.0 128.0 0 0 0 -125.20289289392711 -26.612696424673253Z" fill="#000000"/><path d="M 0 0 -125.20289289392714 26.612696424673096 A 128.0 128.0 0 0 0 -85.64871761393384 95.12253766110646Z" fill="#FF0000"/><path d="M 0 0 -39.554175279993295 121.73523408577965 A 128.0 128.0 0 0 0 39.55417527999324 121.73523408577967Z" fill="#000000"/><path d="M 0 0 85.64871761393388 95.12253766110643 A 128.0 128.0 0 0 0 125.20289289392713 26.612696424673157Z" fill="#FF0000"/><path d="M 0 0 125.2028928939271 -26.612696424673302 A 128.0 128.0 0 0 0 85.64871761393394 -95.12253766110638Z" fill="#000000"/><circle cx="0" cy="0" r="64.0" fill="#FFFFFF"/></g></svg>