<?xml version="1.0" encoding="UTF-8"?><svg xmlns="http://www.w3.org/2000/svg" fill-opacity="1" width="184" height="184" stroke-width="0"><defs id="xenoamess@gmail.com"/><g transform="translate(92.0,92.0)"><circle cx="0" cy="0" r="92.0" fill="#FFFFFF"/><path d="M 0 0 28.42956348249517 -87.49719949915412 A 92.0 92.0 0 0 0 -28.42956348249519 -87.49719949915412Z" fill="#FF0000"/><path d="M 0 0 -61.560015785014954 -68.36932394392026 A 92.0 92.0 0 0 0 -89.98957926751011 -19.1278755552339Z" fill="#000000"/><path d="M 0 0 -89.98957926751014 19.12787555523379 A 92.0 92.0 0 0 0 -61.56001578501495 68.36932394392026Z" fill="#FF0000"/><path d="M 0 0 -28.42956348249518 87.49719949915412 A 92.0 92.0 0 0 0 28.42956348249514 87.49719949915414Z" fill="#000000"/><path d="M 0 0 61.560015785014976 68.36932394392025 A 92.0 92.0 0 0 0 89.98957926751012 19.12787555523383Z" fill="#FF0000"/><path d="M 0 0 89.98957926751011 -19.127875555233935 A 92.0 92.0 0 0 0 61.56001578501502 -68.36932394392021Z" fill="#000000"/><circle cx="0" cy="0" r="46.0" fill="#FFFFFF"/></g></svg>