<?xml version="1.0" encoding="UTF-8"?><svg xmlns="http://www.w3.org/2000/svg" fill-opacity="1" width="1000000000" height="1000000000" stroke-width="0"><defs id="xenoamess@gmail.com"/><g transform="translate(5.0E8,5.0E8)"><circle cx="0" cy="0" r="5.0E8" fill="#FFFFFF"/><path d="M 0 0 1.5450849718747374E8 -4.7552825814757675E8 A 5.0E8 5.0E8 0 0 0 -1.5450849718747386E8 -4.7552825814757675E8Z" fill="#FF0000"/><path d="M 0 0 -3.345653031794291E8 -3.715724127386971E8 A 5.0E8 5.0E8 0 0 0 -4.8907380036690277E8 -1.0395584540887989E8Z" fill="#000000"/><path d="M 0 0 -4.890738003669029E8 1.0395584540887928E8 A 5.0E8 5.0E8 0 0 0 -3.3456530317942905E8 3.715724127386971E8Z" fill="#FF0000"/><path d="M 0 0 -1.545084971874738E8 4.7552825814757675E8 A 5.0E8 5.0E8 0 0 0 1.545084971874736E8 4.755282581475768E8Z" fill="#000000"/><path d="M 0 0 3.3456530317942923E8 3.71572412738697E8 A 5.0E8 5.0E8 0 0 0 4.890738003669028E8 1.0395584540887952E8Z" fill="#FF0000"/><path d="M 0 0 4.890738003669027E8 -1.0395584540888008E8 A 5.0E8 5.0E8 0 0 0 3.345653031794295E8 -3.715724127386968E8Z" fill="#000000"/><circle cx="0" cy="0" r="2.5E8" fill="#FFFFFF"/></g></svg>