<?xml version="1.0" encoding="UTF-8"?><svg xmlns="http://www.w3.org/2000/svg" fill-opacity="1" width="32" height="32" stroke-width="0"><defs id="xenoamess@gmail.com"/><g transform="translate(16.0,16.0)"><circle cx="0" cy="0" r="16.0" fill="#FFFFFF"/><path d="M 0 0 4.94427190999916 -15.216904260722456 A 16.0 16.0 0 0 0 -4.944271909999164 -15.216904260722456Z" fill="#FF0000"/><path d="M 0 0 -10.706089701741732 -11.890317207638308 A 16.0 16.0 0 0 0 -15.65036161174089 -3.3265870530841566Z" fill="#000000"/><path d="M 0 0 -15.650361611740893 3.326587053084137 A 16.0 16.0 0 0 0 -10.70608970174173 11.890317207638308Z" fill="#FF0000"/><path d="M 0 0 -4.944271909999162 15.216904260722456 A 16.0 16.0 0 0 0 4.944271909999155 15.216904260722458Z" fill="#000000"/><path d="M 0 0 10.706089701741735 11.890317207638304 A 16.0 16.0 0 0 0 15.650361611740891 3.3265870530841446Z" fill="#FF0000"/><path d="M 0 0 15.650361611740887 -3.326587053084163 A 16.0 16.0 0 0 0 10.706089701741742 -11.890317207638297Z" fill="#000000"/><circle cx="0" cy="0" r="8.0" fill="#FFFFFF"/></g></svg>