<?xml version="1.0" encoding="UTF-8"?><svg xmlns="http://www.w3.org/2000/svg" fill-opacity="1" width="512" height="512" stroke-width="0"><defs id="xenoamess@gmail.com"/><g transform="translate(256.0,256.0)"><circle cx="0" cy="0" r="256.0" fill="#FFFFFF"/><path d="M 0 0 79.10835055998656 -243.4704681715593 A 256.0 256.0 0 0 0 -79.10835055998662 -243.4704681715593Z" fill="#FF0000"/><path d="M 0 0 -171.2974352278677 -190.24507532221293 A 256.0 256.0 0 0 0 -250.40578578785423 -53.225392849346505Z" fill="#000000"/><path d="M 0 0 -250.40578578785428 53.22539284934619 A 256.0 256.0 0 0 0 -171.29743522786768 190.24507532221293Z" fill="#FF0000"/><path d="M 0 0 -79.10835055998659 243.4704681715593 A 256.0 256.0 0 0 0 79.10835055998648 243.47046817155933Z" fill="#000000"/><path d="M 0 0 171.29743522786777 190.24507532221287 A 256.0 256.0 0 0 0 250.40578578785426 53.22539284934631Z" fill="#FF0000"/><path d="M 0 0 250.4057857878542 -53.225392849346605 A 256.0 256.0 0 0 0 171.29743522786788 -190.24507532221276Z" fill="#000000"/><circle cx="0" cy="0" r="128.0" fill="#FFFFFF"/></g></svg>