<?xml version="1.0" encoding="UTF-8"?><svg xmlns="http://www.w3.org/2000/svg" fill-opacity="1" width="128" height="128" stroke-width="0"><defs id="xenoamess@gmail.com"/><g transform="translate(64.0,64.0)"><circle cx="0" cy="0" r="64.0" fill="#FFFFFF"/><path d="M 0 0 19.77708763999664 -60.867617042889826 A 64.0 64.0 0 0 0 -19.777087639996655 -60.867617042889826Z" fill="#FF0000"/><path d="M 0 0 -42.82435880696693 -47.56126883055323 A 64.0 64.0 0 0 0 -62.60144644696356 -13.306348212336626Z" fill="#000000"/><path d="M 0 0 -62.60144644696357 13.306348212336548 A 64.0 64.0 0 0 0 -42.82435880696692 47.56126883055323Z" fill="#FF0000"/><path d="M 0 0 -19.777087639996648 60.867617042889826 A 64.0 64.0 0 0 0 19.77708763999662 60.86761704288983Z" fill="#000000"/><path d="M 0 0 42.82435880696694 47.56126883055322 A 64.0 64.0 0 0 0 62.601446446963564 13.306348212336578Z" fill="#FF0000"/><path d="M 0 0 62.60144644696355 -13.306348212336651 A 64.0 64.0 0 0 0 42.82435880696697 -47.56126883055319Z" fill="#000000"/><circle cx="0" cy="0" r="32.0" fill="#FFFFFF"/></g></svg>