<?xml version="1.0" encoding="UTF-8"?><svg xmlns="http://www.w3.org/2000/svg" fill-opacity="1" width="3072" height="3072" stroke-width="0"><defs id="xenoamess@gmail.com"/><g transform="translate(1536.0,1536.0)"><circle cx="0" cy="0" r="1536.0" fill="#FFFFFF"/><path d="M 0 0 474.6501033599194 -1460.8228090293558 A 1536.0 1536.0 0 0 0 -474.65010335991974 -1460.8228090293558Z" fill="#FF0000"/><path d="M 0 0 -1027.7846113672063 -1141.4704519332777 A 1536.0 1536.0 0 0 0 -1502.4347147271253 -319.352357096079Z" fill="#000000"/><path d="M 0 0 -1502.4347147271258 319.3523570960772 A 1536.0 1536.0 0 0 0 -1027.784611367206 1141.4704519332777Z" fill="#FF0000"/><path d="M 0 0 -474.6501033599195 1460.8228090293558 A 1536.0 1536.0 0 0 0 474.65010335991883 1460.822809029356Z" fill="#000000"/><path d="M 0 0 1027.7846113672067 1141.4704519332772 A 1536.0 1536.0 0 0 0 1502.4347147271255 319.35235709607787Z" fill="#FF0000"/><path d="M 0 0 1502.434714727125 -319.35235709607963 A 1536.0 1536.0 0 0 0 1027.7846113672072 -1141.4704519332765Z" fill="#000000"/><circle cx="0" cy="0" r="768.0" fill="#FFFFFF"/></g></svg>